<svg xmlns="http://www.w3.org/2000/svg" viewBox="0 0 446 227.69"><defs><style>.cls-1{fill:none;stroke:#fff;stroke-miterlimit:10;}.cls-2{font-size:118.92px;letter-spacing:-0.01em;}.cls-2,.cls-9{fill:#fff;font-family:GhastlyPanic, Ghastly Panic;}.cls-3,.cls-5,.cls-7,.cls-8{font-size:140.24px;}.cls-3{letter-spacing:-0.01em;}.cls-4{font-size:120.04px;letter-spacing:-0.01em;}.cls-5{letter-spacing:0.05em;}.cls-6{font-size:109.94px;letter-spacing:-0.01em;}.cls-7{letter-spacing:-0.01em;}.cls-8{letter-spacing:-0.02em;}.cls-9{font-size:50px;}</style></defs><g id="Layer_2" data-name="Layer 2"><g id="Layer_1-2" data-name="Layer 1"><path class="cls-1" d="M90.88,227.19c-22,0-37.87-7.12-48.53-14.67C4.58,185.72.5,134.58.5,113.85S4.58,42,42.35,15.17C59.06,3.32,88.59-7.44,134.43,8.61c37.07,13,64.07,40.18,88.57,69.53,24.5-29.35,51.5-56.56,88.57-69.53,45.84-16,75.37-5.29,92.08,6.56C441.42,42,445.5,93.11,445.5,113.85s-4.08,71.87-41.85,98.67c-16.71,11.85-46.24,22.61-92.08,6.56-37.07-13-64.07-40.18-88.57-69.53-24.5,29.35-51.5,56.56-88.57,69.53C117.83,224.9,103.37,227.19,90.88,227.19Zm0-181.76c-8.93,0-16.45,2.15-22.5,6.45-16.88,12-22.89,39.86-22.89,62s6,50,22.89,62c11.72,8.32,28.94,8.59,51.18.8,29.09-10.18,51.8-34.86,74.55-62.76-22.75-27.91-45.46-52.59-74.55-62.77Q103.43,45.44,90.89,45.43Zm161,68.42c22.75,27.9,45.46,52.58,74.55,62.76,22.24,7.79,39.46,7.52,51.18-.8,16.88-12,22.89-39.86,22.89-62s-6-50-22.89-62c-11.72-8.32-28.94-8.58-51.18-.8C297.34,61.26,274.63,85.94,251.88,113.85Z"/><text class="cls-2" transform="translate(4.63 148.78) scale(1.25 1)">IN<tspan class="cls-3" x="26.4" y="0">FINIT</tspan><tspan class="cls-4" x="135.78" y="0">E</tspan><tspan class="cls-5" x="168.43" y="0"> </tspan><tspan class="cls-6" x="208.96" y="0">R</tspan><tspan class="cls-7" x="230.72" y="0">O</tspan><tspan class="cls-8" x="266.34" y="0">AD</tspan></text><text class="cls-9" transform="translate(73.37 46.9)">THE</text></g></g></svg>