<svg xmlns="http://www.w3.org/2000/svg" viewBox="0 0 568.18 275"><defs><style>.cls-1{fill:#58595b;opacity:0.25;}.cls-2{fill:#fff;}</style></defs><g id="Layer_2" data-name="Layer 2"><g id="Layer_1-2" data-name="Layer 1"><path class="cls-1" d="M568.18,137.5a137.48,137.48,0,0,1-234.71,97.22l-1.12-1.21L195.19,78.63a82.49,82.49,0,1,0,0,117.74l7.05-8a27.53,27.53,0,0,1,41.25,36.46h0l-7.68,8.66-1.12,1.21a137.48,137.48,0,1,1,0-194.44l1.12,1.21L373,196.37a82.49,82.49,0,1,0,0-117.74l-7.06,8a27.53,27.53,0,0,1-41.25-36.46l7.68-8.66,1.12-1.21A137.49,137.49,0,0,1,568.18,137.5Z"/><path class="cls-2" d="M41.14,103.9v54.69L21.61,178.12V103.9Z"/><path class="cls-2" d="M64.58,131.25v27.34H45.05V103.9H64.58l7.81,7.82V103.9H91.92v74.22L72.39,158.59V139.06Z"/><path class="cls-2" d="M95.83,103.9h39.06v15.63H115.36v3.9h19.53v15.63H115.36v19.53L95.83,178.12Z"/><path class="cls-2" d="M158.33,103.9v54.69L138.8,178.12V103.9Z"/><path class="cls-2" d="M181.76,131.25v27.34H162.23V103.9h19.53l7.82,7.82V103.9h19.53v74.22l-19.53-19.53V139.06Z"/><path class="cls-2" d="M232.55,103.9v54.69L213,178.12V103.9Z"/><path class="cls-2" d="M263.8,119.53v39.06l-19.54,19.53V119.53h-7.81V103.9h50.78l-15.62,15.63Z"/><path class="cls-2" d="M306.76,135.15v23.44l-19.53,19.53v-43l-11.72-11.72V103.9h17.58v11.72l3.91,3.91,3.91-3.91V103.9h17.57v19.53Z"/><path class="cls-2" d="M361.76,146.87v11.72l-19.53,19.53V103.9h46.88V143H381.3l15.62,15.62H373.48Zm7.82-19.53v-7.81h-7.82v7.81Z"/><path class="cls-2" d="M393,158.59V103.9h46.88v54.69Zm19.54-39.06V143h7.81V119.53Z"/><path class="cls-2" d="M443.8,131.25l46.87-46.88v74.22H471.14V131.25L459.42,143h7.81v15.62H443.8Z"/><path class="cls-2" d="M541.45,131.25v27.34H518V143h7.82l-11.72-11.72v27.34H494.58V84.37Z"/></g></g></svg>