<svg xmlns="http://www.w3.org/2000/svg" viewBox="0 0 526 255.1"><defs><style>.cls-1{fill:none;stroke:#fff;stroke-miterlimit:10;opacity:0.5;}.cls-2{fill:#fff;}</style></defs><g id="Layer_2" data-name="Layer 2"><g id="Layer_1-2" data-name="Layer 1"><path class="cls-1" d="M525.5,127.55a127,127,0,0,1-216.87,89.84l-1-1.13L180.85,73.16a76.22,76.22,0,1,0,0,108.78l6.52-7.37a25.44,25.44,0,0,1,38.12,33.69h0l-7.1,8-1,1.13a127,127,0,1,1,0-179.67l1,1.12,126.74,143.1a76.22,76.22,0,1,0,0-108.78l-6.52,7.37A25.43,25.43,0,0,1,300.5,46.84l7.09-8,1-1.12A127,127,0,0,1,525.5,127.55Z"/><path class="cls-2" d="M36.08,95v52.69L17.26,166.46V95Z"/><path class="cls-2" d="M58.66,121.3v26.34H39.84V95H58.66l7.53,7.53V95H85v71.51L66.19,147.64V128.82Z"/><path class="cls-2" d="M88.77,95H126.4V110H107.58v3.76H126.4v15H107.58v18.82L88.77,166.46Z"/><path class="cls-2" d="M149,95v52.69l-18.82,18.82V95Z"/><path class="cls-2" d="M171.56,121.3v26.34H152.75V95h18.81l7.53,7.53V95h18.82v71.51l-18.82-18.82V128.82Z"/><path class="cls-2" d="M220.49,95v52.69l-18.82,18.82V95Z"/><path class="cls-2" d="M250.6,110v37.63l-18.82,18.82V110h-7.53V95h48.93L258.12,110Z"/><path class="cls-2" d="M299.52,95V110H280.7v3.76h33.87l-15.05,15H280.7v3.77h18.82v15H276.94l-15.05-15V95Z"/><path class="cls-2" d="M341.22,136.35v11.29L322.4,166.46V95h45.16v37.64H360l15,15H352.51Zm7.53-18.82V110h-7.53v7.52Z"/><path class="cls-2" d="M371.33,147.64V95h45.16v52.69ZM390.15,110v22.58h7.52V110Z"/><path class="cls-2" d="M420.25,121.3l45.17-45.16v71.5H446.6V121.3l-11.29,11.29h7.52v15H420.25Z"/><path class="cls-2" d="M514.34,121.3v26.34H491.76v-15h7.53L488,121.3v26.34H469.18V76.14Z"/></g></g></svg>